<svg xmlns="http://www.w3.org/2000/svg" viewBox="0 0 1600 900" role="img" aria-label="רקע השראה וזיכרון">
  <defs>
    <linearGradient id="sky" x1="0" y1="0" x2="1" y2="1">
      <stop offset="0" stop-color="#071426"/>
      <stop offset="0.55" stop-color="#10233F"/>
      <stop offset="1" stop-color="#203D67"/>
    </linearGradient>
    <radialGradient id="light" cx="50%" cy="33%" r="55%">
      <stop offset="0" stop-color="#E8D58A" stop-opacity="0.55"/>
      <stop offset="0.45" stop-color="#C9A227" stop-opacity="0.18"/>
      <stop offset="1" stop-color="#081626" stop-opacity="0"/>
    </radialGradient>
    <filter id="blur"><feGaussianBlur stdDeviation="2"/></filter>
  </defs>
  <rect width="1600" height="900" fill="url(#sky)"/>
  <rect width="1600" height="900" fill="url(#light)"/>
  <path d="M0 620 C250 540 400 670 620 590 C850 505 1050 610 1260 555 C1410 515 1510 530 1600 490 L1600 900 L0 900 Z" fill="#06101E" opacity="0.7"/>
  <path d="M150 210 C310 170 470 200 620 170 C780 140 940 120 1110 165 C1260 205 1400 190 1530 155" fill="none" stroke="#ffffff" stroke-opacity="0.16" stroke-width="12"/>
  <path d="M100 250 C310 210 480 245 660 210 C840 175 1080 160 1280 210 C1410 245 1490 235 1580 215" fill="none" stroke="#4DA3FF" stroke-opacity="0.18" stroke-width="14"/>
  <g transform="translate(760 410)">
    <rect x="-18" y="60" width="36" height="125" rx="12" fill="#F7F0DE" opacity="0.9"/>
    <path d="M0 0 C45 55 27 105 0 138 C-30 98 -38 50 0 0Z" fill="#E8D58A"/>
    <path d="M3 28 C22 58 17 83 2 107 C-11 78 -13 52 3 28Z" fill="#C9A227" opacity="0.9"/>
  </g>
  <g opacity="0.18" filter="url(#blur)">
    <circle cx="260" cy="330" r="3" fill="#fff"/>
    <circle cx="340" cy="290" r="2" fill="#fff"/>
    <circle cx="1170" cy="300" r="3" fill="#fff"/>
    <circle cx="1290" cy="260" r="2" fill="#fff"/>
    <circle cx="990" cy="210" r="2" fill="#fff"/>
  </g>
</svg>
