<svg xmlns="http://www.w3.org/2000/svg" viewBox="0 0 900 520">
  <rect width="900" height="520" rx="34" fill="#F7F0DE"/>
  <path d="M165 330h560c38 0 65-22 65-54 0-28-20-46-52-52l-95-18-68-78c-22-25-50-38-83-38H335c-42 0-75 18-98 52l-44 66-54 18c-29 10-49 36-49 66 0 23 17 38 75 38Z" fill="#10233F"/>
  <path d="M325 130h168c24 0 44 9 60 27l45 52H258l34-51c8-13 20-28 33-28Z" fill="#FFFFFF" opacity="0.78"/>
  <circle cx="280" cy="335" r="58" fill="#081626"/>
  <circle cx="280" cy="335" r="25" fill="#C9A227"/>
  <circle cx="640" cy="335" r="58" fill="#081626"/>
  <circle cx="640" cy="335" r="25" fill="#C9A227"/>
  <path d="M160 380h610" stroke="#C9A227" stroke-width="10" stroke-linecap="round"/>
  <text x="450" y="455" text-anchor="middle" font-family="Arial" font-size="42" font-weight="700" fill="#10233F">רכב חדש בשווי 50,000 ₪</text>
</svg>
